:SAMPLES-PER-SECOND 30
:FULLY-SPECIFIED
:DEGREES
552
root  71.7762 39.6065 -6.59617 -14.6693 -78.8252 17.1614
RightUpLeg  -16.781 -24.7048 -8.0948
RightLeg  17.6081 -4.38387 -0.556417
RightFoot  0.285688 -0.121603 1.18046
RightToes  -1.16417e-010 0 -3.6325e-017
Spine  27.3666 -0.883007 4.78382
Spine1  -3.81595 0.339779 -1.52693
HEad  0.767986 -3.84363 0.740495
LeftShoulder1  1.18239 -8.978 -1.18303
LeftArm  -52.8551 -68.294 8.89987
LeftForeArm  34.4139 1.33205 -2.17045
LeftHand  -0.244104 0.0205437 5.32207
RightShoulder  0.0901849 0.471525 -7.021
RightArm  -54.1482 62.3339 3.27222
RightForeArm  0.664379 1.92297 0.313684
RightHand  -1.70469 2.70602 -24.3345
LeftUpLeg  -14.1572 6.4142 4.14113
LeftLeg  4.83447 11.3613 -3.83859
LeftFoot  8.11598 0.339071 -2.26613
LeftToes  -2.09216e-011 1.96776e-011 -5.83545e-012
553
root  71.8022 39.654 -6.56601 -14.5527 -78.6379 17.3314
RightUpLeg  -16.6999 -24.2169 -8.32054
RightLeg  16.9519 -5.08671 -0.45084
RightFoot  0.725506 -0.121918 1.16199
RightToes  -1.16417e-010 0 -3.6325e-017
Spine  27.2636 -1.06479 4.70544
Spine1  -2.77569 0.224819 -1.88251
HEad  -1.05194 -3.86889 1.03761
LeftShoulder1  2.00136 -11.058 -6.0128
LeftArm  -39.1675 -64.3376 -3.9268
LeftForeArm  35.0066 -0.0023753 -3.33057
LeftHand  -0.244104 0.0205437 5.32207
RightShoulder  0.35788 2.87688 -3.22849
RightArm  -41.9607 56.2438 10.8105
RightForeArm  3.27621 6.39487 2.52077
RightHand  -1.85357 3.18333 -24.9765
LeftUpLeg  -13.7629 5.52317 4.11706
LeftLeg  3.25083 12.111 -4.21586
LeftFoot  8.84959 0.314744 -2.07066
LeftToes  -2.09216e-011 1.96776e-011 -5.83545e-012
554
root  71.7411 39.6787 -6.52295 -14.7912 -78.539 17.7326
RightUpLeg  -16.6443 -23.8648 -8.48786
RightLeg  16.7613 -5.45322 -0.576827
RightFoot  0.836665 -0.126677 1.21411
RightToes  -1.16417e-010 0 -3.6325e-017
Spine  27.2642 -1.25859 4.51308
Spine1  -2.27305 0.0816952 -2.33522
HEad  -2.71253 -3.69873 1.52708
LeftShoulder1  2.95363 -12.7444 -10.9639
LeftArm  -28.035 -58.1296 -12.9234
LeftForeArm  35.6666 -0.971588 -4.63518
LeftHand  -0.244104 0.0205437 5.32207
RightShoulder  0.845986 5.05841 1.68582
RightArm  -30.3303 49.5076 16.2409
RightForeArm  4.33844 10.1717 4.62589
RightHand  -1.84633 3.07315 -25.1863
LeftUpLeg  -13.5003 5.40062 3.99922
LeftLeg  2.57684 12.1877 -4.44399
LeftFoot  9.05366 0.308639 -2.02322
LeftToes  -2.09216e-011 1.96776e-011 -5.83545e-012
555
root  71.6089 39.6863 -6.46057 -15.2967 -78.3737 18.2895
RightUpLeg  -16.5232 -23.9001 -8.7396
RightLeg  16.9339 -5.45549 -0.746338
RightFoot  0.641338 -0.133923 1.30567
RightToes  -1.16417e-010 0 -3.6325e-017
Spine  27.1913 -1.5134 4.11852
Spine1  -1.93569 -0.246285 -2.46013
HEad  -4.18696 -3.26272 1.92326
LeftShoulder1  3.97042 -13.6722 -16.3894
LeftArm  -20.102 -50.265 -18.0126
LeftForeArm  36.9133 -1.51843 -5.75415
LeftHand  -0.244104 0.0205437 5.32207
RightShoulder  1.4598 6.82844 6.50903
RightArm  -18.5251 42.1713 20.8703
RightForeArm  4.47516 12.7554 5.9489
RightHand  -1.44909 1.52684 -24.172
LeftUpLeg  -13.3849 5.35668 3.8021
LeftLeg  2.69238 12.1303 -4.50306
LeftFoot  8.81849 0.292564 -1.9484
LeftToes  -2.09216e-011 1.96776e-011 -5.83545e-012
556
root  71.4185 39.6856 -6.38426 -15.6947 -77.9709 18.5876
RightUpLeg  -16.16 -24.2824 -9.16657
RightLeg  17.3305 -5.36182 -0.892127
RightFoot  0.201909 -0.144113 1.44217
RightToes  -1.16417e-010 0 -3.6325e-017
Spine  26.8103 -1.85905 3.66094
Spine1  -1.16166 -0.751159 -2.30607
HEad  -5.71574 -2.88912 2.25296
LeftShoulder1  4.95257 -13.9082 -22.1021
LeftArm  -14.8096 -41.5577 -20.0804
LeftForeArm  38.4395 -1.64337 -6.57556
LeftHand  -0.244104 0.0205437 5.32207
RightShoulder  2.10358 8.26461 10.6826
RightArm  -8.70561 33.6803 25.1919
RightForeArm  4.67497 14.0599 6.45744
RightHand  -0.970823 -0.483169 -22.8196
LeftUpLeg  -13.3451 5.23104 3.46413
LeftLeg  3.39614 11.8877 -4.28964
LeftFoot  8.25916 0.267232 -1.8387
LeftToes  -2.09216e-011 1.96776e-011 -5.83545e-012
557
root  71.1648 39.6809 -6.30084 -15.787 -77.5916 18.457
RightUpLeg  -15.5741 -24.7148 -9.58535
RightLeg  17.7994 -5.21395 -1.03706
RightFoot  -0.369388 -0.158028 1.62498
RightToes  -1.16417e-010 0 -3.6325e-017
Spine  26.2006 -2.10429 3.35317
Spine1  -0.0551135 -1.1087 -2.21454
HEad  -7.37076 -2.87018 2.69796
LeftShoulder1  5.85527 -13.8923 -27.5447
LeftArm  -11.1059 -32.1493 -20.4254
LeftForeArm  39.1056 -1.58991 -7.11414
LeftHand  -0.244104 0.0205437 5.32207
RightShoulder  2.82217 9.422 15.0432
RightArm  -2.43264 23.8859 28.2946
RightForeArm  5.11687 14.0075 6.8724
RightHand  -0.588992 -2.28999 -21.8186
LeftUpLeg  -13.3379 5.53217 3.11582
LeftLeg  4.65872 11.1761 -3.85089
LeftFoot  7.31872 0.268722 -1.90861
LeftToes  -2.09216e-011 1.96776e-011 -5.83545e-012
558
root  70.8499 39.667 -6.20923 -15.7711 -77.6409 18.1176
RightUpLeg  -14.911 -24.8944 -9.79234
RightLeg  18.2985 -4.86983 -1.2219
RightFoot  -1.00134 -0.174084 1.85006
RightToes  -1.16417e-010 0 -3.6325e-017
Spine  25.5851 -2.04033 3.22561
Spine1  1.02339 -1.06972 -2.20491
HEad  -8.92932 -3.12419 3.11947
LeftShoulder1  6.6766 -13.7652 -32.6231
LeftArm  -8.40079 -21.8298 -19.6934
LeftForeArm  38.9039 -2.13534 -7.40303
LeftHand  -0.244104 0.0205437 5.32207
RightShoulder  3.57051 10.0306 19.9916
RightArm  1.00914 13.2207 29.7654
RightForeArm  5.66572 13.2088 7.36972
RightHand  -0.326907 -3.6534 -21.3338
LeftUpLeg  -13.3745 6.84238 2.8578
LeftLeg  6.57421 9.78701 -3.22407
LeftFoot  5.93977 0.29168 -2.15839
LeftToes  -2.09216e-011 1.96776e-011 -5.83545e-012
559
root  70.5105 39.6248 -6.10482 -16.0993 -78.0858 17.9913
RightUpLeg  -14.3197 -24.7344 -9.90101
RightLeg  19.0708 -4.38916 -1.50278
RightFoot  -1.75693 -0.192349 2.15002
RightToes  -1.16417e-010 0 -3.6325e-017
Spine  24.991 -1.73118 3.06229
Spine1  2.15964 -0.814455 -1.96997
HEad  -10.1933 -3.36907 3.20834
LeftShoulder1  7.29809 -13.3234 -37.2561
LeftArm  -6.69514 -10.9086 -18.3284
LeftForeArm  38.6803 -3.74146 -7.38356
LeftHand  -0.244104 0.0205437 5.32207
RightShoulder  4.08547 9.85491 24.4542
RightArm  1.78015 2.23163 30.7969
RightForeArm  7.04935 12.3942 7.58256
RightHand  -0.243145 -4.09365 -21.0202
LeftUpLeg  -13.5143 9.1774 2.45631
LeftLeg  9.10244 7.6673 -2.27169
LeftFoot  4.27661 0.290678 -2.30721
LeftToes  -2.09216e-011 1.96776e-011 -5.83545e-012
560
root  70.1909 39.5452 -5.98765 -17.1627 -78.5219 18.495
RightUpLeg  -13.8489 -24.2057 -10.2515
RightLeg  20.3136 -4.17801 -1.86284
RightFoot  -2.68829 -0.211961 2.5601
RightToes  -1.16417e-010 0 -3.6325e-017
Spine  24.3704 -1.45328 2.56234
Spine1  3.40247 -0.748191 -1.36302
HEad  -11.0707 -3.31143 2.9678
LeftShoulder1  7.48443 -12.4286 -40.6911
LeftArm  -6.31057 0.225057 -17.5159
LeftForeArm  38.0574 -5.99855 -6.89223
LeftHand  -0.244104 0.0205437 5.32207
RightShoulder  4.19948 9.09442 27.3044
RightArm  -0.719559 -8.6405 32.8914
RightForeArm  9.37546 11.3347 7.38404
RightHand  -0.262986 -3.9442 -20.4286
LeftUpLeg  -13.7292 11.6578 1.71291
LeftLeg  11.7839 5.35073 -1.03011
LeftFoot  2.63078 0.259839 -2.24996
LeftToes  -2.09216e-011 1.96776e-011 -5.83545e-012
561
root  69.8988 39.455 -5.85956 -18.7405 -78.7496 19.5274
RightUpLeg  -13.3865 -23.3993 -10.9278
RightLeg  21.6867 -4.40903 -2.15709
RightFoot  -3.64315 -0.228906 3.03193
RightToes  -1.16417e-010 0 -3.6325e-017
Spine  23.8099 -1.40026 1.60752
Spine1  4.24157 -1.07867 -0.508869
HEad  -11.4588 -2.66178 2.63423
LeftShoulder1  7.10699 -11.1049 -42.2369
LeftArm  -7.24099 11.6074 -18.4363
LeftForeArm  36.3227 -8.11048 -5.96341
LeftHand  -0.244104 0.0205437 5.32207
RightShoulder  4.04436 8.17726 28.6276
RightArm  -5.62137 -19.0911 36.137
RightForeArm  11.3366 9.5117 6.8467
RightHand  -0.288176 -3.75467 -19.8632
LeftUpLeg  -13.8121 13.2118 0.947547
LeftLeg  14.0063 3.79978 0.0681852
LeftFoot  1.19504 0.234892 -2.20622
LeftToes  -2.09216e-011 1.96776e-011 -5.83545e-012
562
root  69.6168 39.4018 -5.72214 -20.0266 -78.9538 20.3276
RightUpLeg  -12.7064 -22.8083 -11.5669
RightLeg  22.4799 -4.5316 -2.27847
RightFoot  -4.3362 -0.241073 3.45263
RightToes  -1.16417e-010 0 -3.6325e-017
Spine  23.3686 -1.54823 0.433824
Spine1  4.32345 -1.67689 0.41837
HEad  -11.42 -1.39355 2.30115
LeftShoulder1  6.36263 -9.56067 -42.2731
LeftArm  -8.7587 22.7541 -21.0688
LeftForeArm  34.1617 -8.99968 -4.96626
LeftHand  -0.244104 0.0205437 5.32207
RightShoulder  3.8051 7.34123 29.1027
RightArm  -10.6038 -28.731 39.4839
RightForeArm  11.8351 7.1899 5.91739
RightHand  -0.280594 -3.75227 -19.2839
LeftUpLeg  -13.4962 13.8993 0.624463
LeftLeg  15.4321 3.16749 0.659332
LeftFoot  0.0175179 0.230417 -2.31929
LeftToes  -2.09216e-011 1.96776e-011 -5.83545e-012
563
root  69.3459 39.4103 -5.5785 -20.8322 -79.3533 20.6699
RightUpLeg  -11.6934 -22.3738 -11.9874
RightLeg  22.3657 -4.43486 -2.2239
RightFoot  -4.60027 -0.253822 3.77444
RightToes  -1.16417e-010 0 -3.6325e-017
Spine  22.8725 -1.75485 -0.563899
Spine1  4.03013 -2.24772 1.18167
HEad  -11.2982 0.00997478 1.97288
LeftShoulder1  5.69295 -8.29655 -41.8403
LeftArm  -10.1392 32.4798 -24.532
LeftForeArm  32.1785 -7.77901 -4.22738
LeftHand  -0.244104 0.0205437 5.32207
RightShoulder  3.53214 6.55505 29.1306
RightArm  -14.7351 -36.9715 42.1637
RightForeArm  11.3712 4.97891 4.78656
RightHand  -0.118435 -4.71212 -17.8315
LeftUpLeg  -12.6896 14.3168 0.771039
LeftLeg  15.9899 3.06331 0.812431
LeftFoot  -0.840398 0.229788 -2.44512
LeftToes  -2.09216e-011 1.96776e-011 -5.83545e-012
564
root  69.1053 39.4705 -5.43134 -22.1488 -79.9735 21.5629
RightUpLeg  -10.5258 -21.8075 -12.3356
RightLeg  21.565 -4.27557 -2.08116
RightFoot  -4.47425 -0.272659 4.03341
RightToes  -1.16417e-010 0 -3.6325e-017
Spine  22.1492 -1.90473 -1.20276
Spine1  3.80374 -2.56288 1.44065
HEad  -11.3565 0.967384 1.78073
LeftShoulder1  5.391 -7.75239 -41.5053
LeftArm  -11.2202 40.3122 -28.3151
LeftForeArm  29.4008 -5.27424 -3.70681
LeftHand  -0.244104 0.0205437 5.32207
RightShoulder  3.26241 5.84081 28.9227
RightArm  -18.3943 -43.5087 44.0592
RightForeArm  10.0987 3.39214 3.76339
RightHand  0.192786 -6.94045 -15.7686
LeftUpLeg  -11.4715 14.4369 1.07757
LeftLeg  15.7106 3.57427 0.751907
LeftFoot  -1.29514 0.221719 -2.43405
LeftToes  -2.09216e-011 1.96776e-011 -5.83545e-012
565
root  68.9017 39.5643 -5.27825 -25.1611 -80.8154 24.2735
RightUpLeg  -9.44592 -21.0007 -12.7522
RightLeg  20.3464 -4.06295 -1.86996
RightFoot  -4.08002 -0.297782 4.25193
RightToes  -1.16417e-010 0 -3.6325e-017
Spine  21.2535 -1.93875 -1.56105
Spine1  3.5843 -2.56254 1.10391
HEad  -11.491 1.4334 1.81568
LeftShoulder1  5.37953 -7.80981 -41.184
LeftArm  -13.0603 46.6624 -32.5526
LeftForeArm  26.1393 -3.52089 -3.27375
LeftHand  -0.244104 0.0205437 5.32207
RightShoulder  3.10018 5.42757 28.7162
RightArm  -21.0968 -48.4327 45.0365
RightForeArm  7.23206 2.78264 3.0967
RightHand  0.4331 -8.99464 -14.642
LeftUpLeg  -9.97838 13.9971 1.34303
LeftLeg  14.6948 5.00021 0.517349
LeftFoot  -1.37704 0.212514 -2.34285
LeftToes  -2.09216e-011 1.96776e-011 -5.83545e-012
566
root  68.7297 39.6775 -5.1159 -30.1999 -81.9458 29.1492
RightUpLeg  -8.49367 -19.8808 -13.1707
RightLeg  18.7584 -3.8363 -1.50085
RightFoot  -3.4922 -0.326527 4.40981
RightToes  -1.16417e-010 0 -3.6325e-017
Spine  20.3005 -1.81817 -1.67063
Spine1  3.27133 -2.29088 0.483111
HEad  -11.4641 1.79809 1.90668
LeftShoulder1  5.45851 -8.05685 -40.8757
LeftArm  -15.894 51.4699 -37.1627
LeftForeArm  23.905 -3.39245 -2.84789
LeftHand  -0.244104 0.0205437 5.32207
RightShoulder  3.07804 5.396 28.5868
RightArm  -22.0634 -51.5999 44.7165
RightForeArm  3.70171 2.94717 2.97466
RightHand  0.49306 -9.42258 -14.8869
LeftUpLeg  -8.35477 12.9968 1.67609
LeftLeg  13.1986 7.36493 0.0242943
LeftFoot  -1.25581 0.208256 -2.27869
LeftToes  -2.09216e-011 1.96776e-011 -5.83545e-012
